<svg width="61" height="61" xmlns="http://www.w3.org/2000/svg" xmlns:xlink="http://www.w3.org/1999/xlink" overflow="hidden"><defs><clipPath id="clip0"><rect x="94" y="75" width="61" height="61"/></clipPath></defs><g clip-path="url(#clip0)" transform="translate(-94 -75)"><path d="M129.837 117.946C130.299 117.957 130.774 117.964 131.264 117.964 131.818 117.964 132.366 117.953 132.91 117.938 132.995 117.574 133.013 117.198 132.963 116.828 132.789 115.552 131.91 114.619 130.999 114.743 130.088 114.868 129.49 116.002 129.665 117.277 129.698 117.506 129.756 117.73 129.837 117.946Z"/><path d="M139.101 117.361C139.569 117.277 139.972 117.192 140.321 117.107 140.367 117.024 140.415 116.944 140.455 116.852 140.973 115.674 140.709 114.419 139.869 114.049 139.03 113.678 137.926 114.334 137.407 115.51 137.088 116.17 137.058 116.934 137.324 117.617 137.949 117.547 138.543 117.46 139.101 117.361Z"/><path d="M141.983 115.616C141.98 115.916 141.944 116.214 141.875 116.506L142.268 116.61C142.607 116.701 142.808 117.049 142.718 117.388 142.663 117.594 142.508 117.759 142.305 117.827 141.34 118.188 140.341 118.45 139.324 118.609 136.659 119.044 133.962 119.253 131.261 119.233 125.713 119.233 121.902 118.504 120.184 117.821 119.858 117.691 119.699 117.322 119.829 116.996 119.893 116.837 120.017 116.71 120.175 116.645L120.9 116.343C120.825 116.067 120.795 115.781 120.813 115.496 119.166 115.955 118.179 116.524 118.179 117.143 118.179 117.371 118.185 117.597 118.199 117.822 118.378 120.675 119.808 123.302 122.106 125.002 123.624 126.144 125.429 126.844 127.32 127.024 127.642 127.055 127.967 127.07 128.296 127.07L134.078 127.07C137.601 127.076 140.878 125.27 142.756 122.29 143.595 120.945 144.084 119.41 144.178 117.827 144.185 117.715 144.185 117.601 144.188 117.488 144.191 117.375 144.197 117.262 144.197 117.148 144.198 116.579 143.381 116.053 141.983 115.616Z"/><path d="M123.205 117.313C123.862 117.44 124.611 117.55 125.447 117.647 124.708 116.775 124.55 115.549 125.043 114.518 124.991 114.497 124.943 114.47 124.888 114.454 123.671 114.036 122.442 114.401 122.143 115.27 121.895 115.984 122.361 116.807 123.205 117.313Z"/><path d="M129.912 113.813C129.857 113.71 129.787 113.616 129.705 113.533 129.055 112.883 127.79 113.094 126.88 114.004 125.969 114.914 125.759 116.179 126.406 116.829 126.968 117.283 127.755 117.336 128.373 116.962 128.271 115.71 128.862 114.502 129.912 113.813Z"/><path d="M152.458 121.068C152.458 116.604 146.549 112.724 137.844 110.733L137.844 113.134C138.301 112.846 138.828 112.688 139.369 112.679 139.717 112.678 140.062 112.75 140.382 112.89 140.958 113.15 141.42 113.613 141.679 114.19L142.363 114.403C143.131 114.644 145.469 115.374 145.469 117.145 145.469 117.239 145.465 117.331 145.462 117.425L145.455 117.626C145.455 117.717 145.452 117.807 145.447 117.897 145.434 118.097 145.415 118.296 145.393 118.495 145.945 119.241 146.252 120.14 146.271 121.068 146.271 126.119 136.514 130.222 124.5 130.222 112.486 130.222 102.729 126.119 102.729 121.068 102.729 118.347 105.563 115.904 110.053 114.227L110.053 113.563C108.888 113.213 107.788 112.675 106.796 111.97 100.537 114.125 96.5417 117.398 96.5417 121.068 96.5417 121.134 96.5512 121.201 96.5537 121.267 96.5499 121.307 96.5417 121.345 96.5417 121.385 96.5417 128.743 109.084 134.729 124.5 134.729 139.916 134.729 152.458 128.743 152.458 121.385 152.458 121.345 152.45 121.307 152.446 121.267 152.449 121.201 152.458 121.134 152.458 121.068Z"/><path d="M117.73 121.378C117.467 121.249 117.192 121.144 116.91 121.065 116.302 120.901 115.678 120.801 115.049 120.767 114.318 120.533 113.753 120.168 113.753 119.736L113.753 111.96C115.946 111.96 120 109.736 119.8 107.541L119.07 97.2396 106.841 97.2396 105.977 107.541C105.811 109.701 109.798 111.96 111.959 111.96L111.959 119.703C111.959 120.168 111.36 120.5 110.663 120.733 109.998 120.833 109.367 120.899 108.868 121.032L108.835 121.032C107.971 121.265 107.473 121.564 107.473 121.929 107.473 122.692 109.898 123.292 112.889 123.292 115.412 123.292 117.566 122.856 118.146 122.253 117.997 121.967 117.854 121.676 117.73 121.378ZM107.838 103.055 108.137 98.7341 117.574 98.7341 117.807 103.055Z"/><path d="M123.88 113.007C124.364 113.009 124.845 113.091 125.302 113.25 125.373 113.275 125.443 113.304 125.512 113.336L125.712 113.417C125.8 113.311 125.883 113.204 125.981 113.105 126.697 112.356 127.678 111.918 128.713 111.885 129.418 111.873 130.098 112.143 130.602 112.635 130.77 112.804 130.913 112.997 131.026 113.207L131.167 113.466C131.582 113.472 131.989 113.58 132.354 113.779 132.653 113.414 133.009 113.099 133.408 112.847 134.061 112.425 134.82 112.196 135.598 112.186 135.711 112.192 135.824 112.203 135.936 112.22L135.936 94.987C135.936 92.6667 134.647 90.5384 132.591 89.4627L131.989 78.8703 132.512 78.8703 132.512 78.3506C132.512 78.0834 132.46 77.8188 132.359 77.5715 132.024 76.8308 131.277 76.3632 130.464 76.3846L127.931 76.3846C127.118 76.363 126.371 76.8307 126.036 77.5715 125.935 77.8188 125.883 78.0834 125.883 78.3506L125.883 78.8703 126.368 78.8703 125.766 89.4627C123.71 90.5382 122.421 92.6666 122.422 94.987L122.422 113.316C122.88 113.11 123.377 113.005 123.88 113.007Z"/><path d="M136.244 115.004C136.404 114.639 136.613 114.297 136.864 113.987 136.329 113.309 135.125 113.264 134.087 113.917 133.804 114.096 133.551 114.319 133.339 114.578 133.82 115.176 134.125 115.896 134.222 116.657 134.243 116.838 134.253 117.02 134.252 117.202 134.824 117.211 135.384 117.049 135.863 116.737 135.87 116.733 135.876 116.727 135.883 116.723 135.883 116.131 136.006 115.546 136.244 115.004Z"/></g></svg>