<svg width="31" height="32" xmlns="http://www.w3.org/2000/svg" xmlns:xlink="http://www.w3.org/1999/xlink" overflow="hidden"><defs><clipPath id="clip0"><rect x="1030" y="337" width="31" height="32"/></clipPath></defs><g clip-path="url(#clip0)" transform="translate(-1030 -337)"><path d="M28.4167 15.1771C28.4167 14.1115 27.5448 13.2396 26.4792 13.2396L20.3438 13.2396C19.8271 13.2396 19.4073 12.8198 19.375 12.3031 19.4073 11.7219 20.3438 10.5594 20.3438 6.13542 20.3438 5.06979 19.4719 4.19792 18.4062 4.19792 17.3406 4.19792 16.4688 5.06979 16.4688 6.13542 16.4688 11.0437 10.7531 13.8208 10.6562 13.8854L10.6562 24.2188C12.949 24.2188 13.1104 26.8021 17.4375 26.8021 18.8906 26.8021 23.25 26.8021 23.25 26.8021 24.3156 26.8021 25.1875 25.9302 25.1875 24.8646 25.1875 24.3479 24.9937 23.8958 24.6708 23.5729 24.7354 23.5729 24.8 23.5729 24.8646 23.5729 25.9302 23.5729 26.8021 22.701 26.8021 21.6354 26.8021 21.1187 26.6083 20.6344 26.2531 20.2792 27.125 20.0854 27.7708 19.3104 27.7708 18.4062 27.7708 17.8573 27.5448 17.3406 27.1573 16.9854 27.9 16.7271 28.4167 16.0167 28.4167 15.1771Z" stroke="#000000" stroke-width="2" fill="none" transform="matrix(1 0 0 1.03226 1030 337)"/><path d="M7.42708 12.2708 2.58333 12.2708 2.58333 25.8333 7.42708 25.8333C8.1375 25.8333 8.71875 25.2521 8.71875 24.5417L8.71875 13.5625C8.71875 12.8521 8.1375 12.2708 7.42708 12.2708Z" stroke="#000000" stroke-width="2" fill="none" transform="matrix(1 0 0 1.03226 1030 337)"/></g></svg>